# xmcd
#
# Track frame offsets:
#	150
#	16112
#	31394
#	39878
#	50970
#	64403
#	74556
#	89538
#	102238
#	114444
#	133247
#	144572
#	156453
#	172370
#	185058
#	199788
#
# Disc length: 2912 seconds
#
# Revision: 3
# Processed by: cddbd v1.5.2PL0 Copyright (c) Steve Scherf et al.
# Submitted via: audiograbber 1.83.01
#
DISCID=f90b5e10
DTITLE=Various Artist - Country mania [CD 4)
DYEAR=2012
DGENRE=Country
TTITLE0=Kenny Rogers - Tulsa turnaround
TTITLE1=Willie Nelson - And so will you my love
TTITLE2=Johnny Cash and The Tennessee Two - The wreck of the old 97
TTITLE3=Roger Miller - King of the road
TTITLE4=Kenny Rogers - Shine on ruby mountain
TTITLE5=Johnny Cash and The Tennessee Two - I was there when it happened
TTITLE6=Kenny Rogers - For the good times
TTITLE7=Johnny Cash - Next in line
TTITLE8=Willie Nelson - December day
TTITLE9=Johnny Cash - Sunday morning coming down
TTITLE10=Willie Nelson - Go away
TTITLE11=Ernest Tubb - Walking the floor over you
TTITLE12=Kenny Rogers - Good lady of Toronto
TTITLE13=Patsy Cline - Crazy
TTITLE14=George Jones - A good year for the roses
TTITLE15=Johnny Cash - San Quentin
EXTD=
EXTT0=
EXTT1=
EXTT2=
EXTT3=
EXTT4=
EXTT5=
EXTT6=
EXTT7=
EXTT8=
EXTT9=
EXTT10=
EXTT11=
EXTT12=
EXTT13=
EXTT14=
EXTT15=
PLAYORDER=
